# xmcd CD database file generated by Grip 3.2.0
# 
# Track frame offsets:
#       150
#       25316
#       48532
#       64821
#       77486
#       94562
#       113223
#       133648
# 
# Disc length: 2570 seconds
# 
# Revision: 6
# Processed by: cddbd v1.5.1PL0 Copyright (c) Steve Scherf et al.
# Submitted via: Grip 3.2.0
# 
DISCID=620a0808
DTITLE=James Cohen - La Tormenta
DYEAR=2000
DGENRE=Acoustic
TTITLE0=La Tormenta
TTITLE1=Fortune's Fool
TTITLE2=Pizza, Wine and Candles
TTITLE3=Little Saint
TTITLE4=Amor Azul
TTITLE5=Mi Corazón
TTITLE6=Vuelta del Luz
TTITLE7=La Tormenta (revisited)
EXTD=
EXTT0=
EXTT1=
EXTT2=
EXTT3=
EXTT4=
EXTT5=
EXTT6=
EXTT7=
PLAYORDER=
